
<svg xmlns="http://www.w3.org/2000/svg" version="1.1" xmlns:xlink="http://www.w3.org/1999/xlink" xmlns:svgjs="http://svgjs.dev/svgjs" width="1500" height="325" viewBox="0 0 1500 325"><g transform="matrix(1,0,0,1,-0.9090909090909918,-0.7611022848188611)"><svg viewBox="0 0 396 86" data-background-color="#ffffff" preserveAspectRatio="xMidYMid meet" height="325" width="1500" xmlns="http://www.w3.org/2000/svg" xmlns:xlink="http://www.w3.org/1999/xlink"><g id="tight-bounds" transform="matrix(1,0,0,1,0.2400000000000091,0.48023591756290784)"><svg viewBox="0 0 395.52 85.0395281648742" height="85.0395281648742" width="395.52"><g><svg viewBox="0 0 560.9457239853483 120.60719987312343" height="85.0395281648742" width="395.52"><g><rect width="7.782941530360726" height="120.60719987312343" x="137.26858996713233" y="0" fill="#1090cb" opacity="1" stroke-width="0" stroke="transparent" fill-opacity="1" class="rect-yte-0" data-fill-palette-color="primary" rx="1%" id="yte-0" data-palette-color="#1090cb"></rect></g><g transform="matrix(1,0,0,1,165.42572398534836,0.30001791013214074)"><svg viewBox="0 0 395.52 120.00716405285915" height="120.00716405285915" width="395.52"><g id="textblocktransform"><svg viewBox="0 0 395.52 120.00716405285915" height="120.00716405285915" width="395.52" id="textblock"><g><svg viewBox="0 0 395.52 86.30353143841518" height="86.30353143841518" width="395.52"><g transform="matrix(1,0,0,1,0,0)"><svg width="395.52" viewBox="5.3 -37.5 175.88 38" height="86.30353143841518" data-palette-color="#1090cb"><path d="M9.65 0L5.3 0 5.3-34 15.9-34Q20.8-34 23.38-31.43 25.95-28.85 25.95-24.55L25.95-24.55 25.95-21.9Q25.95-17.6 23.38-15 20.8-12.4 15.9-12.4L15.9-12.4 9.65-12.4 9.65 0ZM15.9-29.9L15.9-29.9 9.65-29.9 9.65-16.45 15.9-16.45Q18.6-16.45 20.03-17.9 21.45-19.35 21.45-21.9L21.45-21.9 21.45-24.55Q21.45-27.05 20.03-28.48 18.6-29.9 15.9-29.9ZM44.95-25.25L44.95-21.15Q42.7-21.15 40.57-20.35 38.45-19.55 36.05-17.3L36.05-17.3 36.05 0 31.95 0 31.95-24.75 35.85-24.75 35.85-20.75Q38.4-23.25 40.52-24.25 42.65-25.25 44.95-25.25L44.95-25.25ZM69.9-13.9L69.9-13.9 69.9-10.9Q69.9-5.6 67.17-2.55 64.45 0.5 59.4 0.5L59.4 0.5Q54.4 0.5 51.65-2.55 48.9-5.6 48.9-10.9L48.9-10.9 48.9-13.9Q48.9-19.1 51.62-22.18 54.35-25.25 59.4-25.25L59.4-25.25Q64.45-25.25 67.17-22.18 69.9-19.1 69.9-13.9ZM65.65-10.9L65.65-13.9Q65.65-17.45 64.05-19.48 62.45-21.5 59.4-21.5L59.4-21.5Q56.4-21.5 54.77-19.48 53.15-17.45 53.15-13.9L53.15-13.9 53.15-10.9Q53.15-7.2 54.77-5.2 56.4-3.2 59.4-3.2L59.4-3.2Q62.45-3.2 64.05-5.2 65.65-7.2 65.65-10.9L65.65-10.9ZM85.19-3.4L85.19-3.4Q88.34-3.4 90.04-4.78 91.74-6.15 91.74-8.8L91.74-8.8Q91.74-11 90.57-12.5 89.39-14 86.74-14.8L86.74-14.8 82.69-16Q78.89-17.15 77.09-19.48 75.29-21.8 75.29-25.2L75.29-25.2Q75.29-27.8 76.32-29.9 77.34-32 79.62-33.25 81.89-34.5 85.59-34.5L85.59-34.5Q87.84-34.5 90.24-33.98 92.64-33.45 95.09-32.3L95.09-32.3 93.69-28.55Q91.29-29.6 89.37-30.08 87.44-30.55 85.69-30.55L85.69-30.55Q82.84-30.55 81.27-29.38 79.69-28.2 79.69-25.5L79.69-25.5Q79.69-23.55 80.74-22.23 81.79-20.9 84.49-20.05L84.49-20.05 88.54-18.85Q96.14-16.6 96.14-9.15L96.14-9.15Q96.14-4.85 93.54-2.18 90.94 0.5 85.19 0.5L85.19 0.5Q82.84 0.5 80.22-0.08 77.59-0.65 74.79-1.9L74.79-1.9 76.14-5.6Q78.79-4.4 80.92-3.9 83.04-3.4 85.19-3.4ZM122.24-13.9L122.24-13.9 122.24-10.9Q122.24-5.6 119.52-2.55 116.79 0.5 111.74 0.5L111.74 0.5Q106.74 0.5 103.99-2.55 101.24-5.6 101.24-10.9L101.24-10.9 101.24-13.9Q101.24-19.1 103.97-22.18 106.69-25.25 111.74-25.25L111.74-25.25Q116.79-25.25 119.52-22.18 122.24-19.1 122.24-13.9ZM117.99-10.9L117.99-13.9Q117.99-17.45 116.39-19.48 114.79-21.5 111.74-21.5L111.74-21.5Q108.74-21.5 107.12-19.48 105.49-17.45 105.49-13.9L105.49-13.9 105.49-10.9Q105.49-7.2 107.12-5.2 108.74-3.2 111.74-3.2L111.74-3.2Q114.79-3.2 116.39-5.2 117.99-7.2 117.99-10.9L117.99-10.9ZM142.69-24.75L142.69-21.15 134.59-21.15 134.59 0 130.49 0 130.49-21.15 126.19-21.15 126.19-24.75 130.49-24.75 130.49-28.85Q130.49-31.15 131.26-33.13 132.04-35.1 133.79-36.3 135.54-37.5 138.44-37.5L138.44-37.5Q139.89-37.5 141.51-37.18 143.14-36.85 144.54-36.2L144.54-36.2 143.39-32.75Q140.84-33.75 138.94-33.75L138.94-33.75Q136.84-33.75 135.71-32.6 134.59-31.45 134.59-28.9L134.59-28.9 134.59-24.75 142.69-24.75ZM159.54-4.25L160.79-0.9Q157.99 0.5 154.84 0.5L154.84 0.5Q152.14 0.5 150.61-0.6 149.09-1.7 148.46-3.55 147.84-5.4 147.84-7.65L147.84-7.65 147.84-21.15 143.54-21.15 143.54-24.75 147.84-24.75 147.84-31.65 151.94-31.65 151.94-24.75 160.04-24.75 160.04-21.15 151.94-21.15 151.94-7.8Q151.94-5.2 152.81-4.23 153.69-3.25 155.54-3.25L155.54-3.25Q156.44-3.25 157.41-3.48 158.39-3.7 159.54-4.25L159.54-4.25ZM172.23-3.15L172.23-3.15Q177.23-3.15 177.23-6.55L177.23-6.55Q177.23-8 176.33-8.85 175.43-9.7 173.03-10.3L173.03-10.3 170.28-11Q167.23-11.75 165.73-13.63 164.23-15.5 164.23-18.1L164.23-18.1Q164.23-20 165.08-21.63 165.93-23.25 167.78-24.25 169.63-25.25 172.58-25.25L172.58-25.25Q174.48-25.25 176.46-24.83 178.43-24.4 180.48-23.4L180.48-23.4 179.18-19.95Q175.53-21.6 172.58-21.6L172.58-21.6Q168.23-21.6 168.23-18.35L168.23-18.35Q168.23-17.1 169.03-16.2 169.83-15.3 172.03-14.75L172.03-14.75 174.78-14.05Q178.08-13.25 179.63-11.45 181.18-9.65 181.18-6.8L181.18-6.8Q181.18-4.75 180.31-3.08 179.43-1.4 177.51-0.45 175.58 0.5 172.33 0.5L172.33 0.5Q170.18 0.5 168.06 0.05 165.93-0.4 163.68-1.4L163.68-1.4 164.78-4.8Q166.93-3.95 168.68-3.55 170.43-3.15 172.23-3.15Z" opacity="1" transform="matrix(1,0,0,1,0,0)" fill="#1090cb" class="wordmark-text-0" data-fill-palette-color="primary" id="text-0"></path></svg></g></svg></g><g transform="matrix(1,0,0,1,0,106.67772392627049)"><svg viewBox="0 0 232.209792 13.329440126588672" height="13.329440126588672" width="232.209792"><g transform="matrix(1,0,0,1,0,0)"><svg width="232.209792" viewBox="2.95 -33.55 593.99 34.099999999999994" height="13.329440126588672" data-palette-color="#1090cb"><path d="M6.55 0L2.95 0 2.95-31.15 12.95-31.15Q16.45-31.15 18.6-29.95 20.75-28.75 21.78-26.78 22.8-24.8 22.8-22.35L22.8-22.35Q22.8-20.55 22.25-19 21.7-17.45 20.53-16.25 19.35-15.05 17.55-14.4 15.75-13.75 13.2-13.75L13.2-13.75 6.55-13.75 6.55 0ZM6.55-27.85L6.55-16.85 12.8-16.85Q15.1-16.85 16.5-17.53 17.9-18.2 18.55-19.43 19.2-20.65 19.2-22.25L19.2-22.25Q19.2-23.8 18.55-25.05 17.9-26.3 16.5-27.08 15.1-27.85 12.85-27.85L12.85-27.85 6.55-27.85ZM30.95 0.05L30.95-22.85 34.7-22.85 34.55-16.2 34.1-16.95Q34.4-18.5 35.15-19.7 35.9-20.9 36.95-21.73 38-22.55 39.25-22.98 40.5-23.4 41.85-23.4L41.85-23.4Q43.65-23.4 45.17-22.78 46.7-22.15 47.9-20.9L47.9-20.9 46.3-18.1 46.1-17.65 45.75-17.85Q45.65-18.25 45.45-18.6 45.25-18.95 44.6-19.45L44.6-19.45Q43.8-19.95 43.12-20.13 42.45-20.3 41.6-20.3L41.6-20.3Q40.35-20.3 39.1-19.83 37.85-19.35 36.82-18.35 35.8-17.35 35.2-15.8 34.6-14.25 34.6-12.1L34.6-12.1 34.6 0.05 30.95 0.05ZM62.5 0.4L62.5 0.4Q59.4 0.4 57.02-1.13 54.65-2.65 53.3-5.33 51.95-8 51.95-11.45L51.95-11.45Q51.95-14.95 53.3-17.63 54.65-20.3 57.02-21.83 59.4-23.35 62.5-23.35L62.5-23.35Q65.59-23.35 67.97-21.83 70.34-20.3 71.7-17.63 73.05-14.95 73.05-11.45L73.05-11.45Q73.05-8 71.7-5.33 70.34-2.65 67.97-1.13 65.59 0.4 62.5 0.4ZM62.5-2.6L62.5-2.6Q64.5-2.6 66-3.75 67.5-4.9 68.37-6.9 69.25-8.9 69.25-11.5L69.25-11.5Q69.25-14.1 68.37-16.1 67.5-18.1 66-19.23 64.5-20.35 62.5-20.35L62.5-20.35Q60.55-20.35 59.02-19.23 57.5-18.1 56.62-16.1 55.75-14.1 55.75-11.5L55.75-11.5Q55.75-8.9 56.62-6.9 57.5-4.9 59.02-3.75 60.55-2.6 62.5-2.6ZM83.09 0L83.09-20 78.14-20 78.14-22.85 83.09-22.85 83.09-24.75Q83.09-27.8 84.17-29.75 85.24-31.7 87.14-32.63 89.04-33.55 91.49-33.55L91.49-33.55Q93.64-33.55 95.52-32.77 97.39-32 98.64-30.4L98.64-30.4 96.74-27.75 96.44-27.35 96.14-27.55Q96.09-27.95 95.94-28.35 95.79-28.75 95.24-29.35L95.24-29.35Q94.44-30.05 93.64-30.35 92.84-30.65 91.59-30.65L91.59-30.65Q90.14-30.65 88.99-30.08 87.84-29.5 87.19-28.23 86.54-26.95 86.54-24.75L86.54-24.75 86.54-22.85 94.04-22.85 94.04-20 86.54-20 86.54 0 83.09 0ZM113.59 0.5L113.59 0.5Q111.09 0.5 109.04-0.28 106.99-1.05 105.52-2.55 104.04-4.05 103.24-6.28 102.44-8.5 102.44-11.35L102.44-11.35Q102.44-14.25 103.27-16.5 104.09-18.75 105.52-20.28 106.94-21.8 108.87-22.6 110.79-23.4 112.94-23.4L112.94-23.4Q114.89-23.4 116.59-22.75 118.29-22.1 119.54-20.78 120.79-19.45 121.52-17.4 122.24-15.35 122.24-12.55L122.24-12.55Q122.24-12.15 122.22-11.73 122.19-11.3 122.14-10.9L122.14-10.9 105.89-10.9Q105.99-8.7 106.64-7.08 107.29-5.45 108.34-4.42 109.39-3.4 110.77-2.9 112.14-2.4 113.69-2.4L113.69-2.4Q114.89-2.4 115.94-2.68 116.99-2.95 117.92-3.53 118.84-4.1 119.59-4.95L119.59-4.95 121.59-3Q120.64-1.85 119.42-1.05 118.19-0.25 116.74 0.13 115.29 0.5 113.59 0.5ZM106.04-13.7L106.04-13.7 118.59-13.7Q118.59-15.3 118.17-16.57 117.74-17.85 116.97-18.78 116.19-19.7 115.12-20.18 114.04-20.65 112.69-20.65L112.69-20.65Q111.49-20.65 110.42-20.25 109.34-19.85 108.44-18.98 107.54-18.1 106.92-16.8 106.29-15.5 106.04-13.7ZM137.54 0.5L137.54 0.5Q135.64 0.5 133.91 0.1 132.19-0.3 130.66-1.1 129.14-1.9 127.84-3.1L127.84-3.1 129.84-6.5 130.14-6.95 130.44-6.75Q130.54-6.35 130.66-5.93 130.79-5.5 131.34-4.9L131.34-4.9Q132.39-3.85 133.86-3.18 135.34-2.5 137.64-2.5L137.64-2.5Q139.49-2.5 140.76-2.95 142.04-3.4 142.74-4.23 143.44-5.05 143.44-6.15L143.44-6.15Q143.44-6.9 143.14-7.48 142.84-8.05 142.16-8.55 141.49-9.05 140.39-9.55 139.29-10.05 137.69-10.55L137.69-10.55Q135.09-11.3 133.14-12.3 131.19-13.3 130.14-14.63 129.09-15.95 129.09-17.65L129.09-17.65Q129.09-19.4 130.04-20.68 130.99-21.95 132.86-22.68 134.74-23.4 137.49-23.4L137.49-23.4Q139.09-23.4 140.39-23.18 141.69-22.95 142.79-22.5 143.89-22.05 144.81-21.38 145.74-20.7 146.59-19.8L146.59-19.8 144.54-17.3 144.19-16.9 143.94-17.15Q143.89-17.55 143.71-17.93 143.54-18.3 142.99-18.85L142.99-18.85Q141.84-19.75 140.39-20.23 138.94-20.7 137.59-20.7L137.59-20.7Q135.59-20.7 134.14-20 132.69-19.3 132.69-17.85L132.69-17.85Q132.69-17.1 133.21-16.38 133.74-15.65 135.14-14.93 136.54-14.2 139.14-13.45L139.14-13.45Q141.99-12.55 143.71-11.63 145.44-10.7 146.21-9.5 146.99-8.3 146.99-6.65L146.99-6.65Q146.99-4.75 145.96-3.1 144.94-1.45 142.84-0.48 140.74 0.5 137.54 0.5L137.54 0.5ZM162.54 0.5L162.54 0.5Q160.64 0.5 158.91 0.1 157.19-0.3 155.66-1.1 154.14-1.9 152.84-3.1L152.84-3.1 154.84-6.5 155.14-6.95 155.44-6.75Q155.54-6.35 155.66-5.93 155.79-5.5 156.34-4.9L156.34-4.9Q157.39-3.85 158.86-3.18 160.34-2.5 162.64-2.5L162.64-2.5Q164.49-2.5 165.76-2.95 167.04-3.4 167.74-4.23 168.44-5.05 168.44-6.15L168.44-6.15Q168.44-6.9 168.14-7.48 167.84-8.05 167.16-8.55 166.49-9.05 165.39-9.55 164.29-10.05 162.69-10.55L162.69-10.55Q160.09-11.3 158.14-12.3 156.19-13.3 155.14-14.63 154.09-15.95 154.09-17.65L154.09-17.65Q154.09-19.4 155.04-20.68 155.99-21.95 157.86-22.68 159.74-23.4 162.49-23.4L162.49-23.4Q164.09-23.4 165.39-23.18 166.69-22.95 167.79-22.5 168.89-22.05 169.81-21.38 170.74-20.7 171.59-19.8L171.59-19.8 169.54-17.3 169.19-16.9 168.94-17.15Q168.89-17.55 168.71-17.93 168.54-18.3 167.99-18.85L167.99-18.85Q166.84-19.75 165.39-20.23 163.94-20.7 162.59-20.7L162.59-20.7Q160.59-20.7 159.14-20 157.69-19.3 157.69-17.85L157.69-17.85Q157.69-17.1 158.21-16.38 158.74-15.65 160.14-14.93 161.54-14.2 164.14-13.45L164.14-13.45Q166.99-12.55 168.71-11.63 170.44-10.7 171.21-9.5 171.99-8.3 171.99-6.65L171.99-6.65Q171.99-4.75 170.96-3.1 169.94-1.45 167.84-0.48 165.74 0.5 162.54 0.5L162.54 0.5ZM194.78 0L179.98 0 179.98-2.9 185.83-2.9 185.83-19.95 180.28-19.95 180.28-22.85 189.43-22.85 189.43-2.9 194.78-2.9 194.78 0ZM187.43-27.65L187.43-27.65Q186.38-27.65 185.63-28.4 184.88-29.15 184.88-30.2L184.88-30.2Q184.88-31.3 185.61-32.05 186.33-32.8 187.43-32.8L187.43-32.8Q188.48-32.8 189.26-32.02 190.03-31.25 190.03-30.2L190.03-30.2Q190.03-29.15 189.26-28.4 188.48-27.65 187.43-27.65ZM212.48 0.4L212.48 0.4Q209.38 0.4 207.01-1.13 204.63-2.65 203.28-5.33 201.93-8 201.93-11.45L201.93-11.45Q201.93-14.95 203.28-17.63 204.63-20.3 207.01-21.83 209.38-23.35 212.48-23.35L212.48-23.35Q215.58-23.35 217.96-21.83 220.33-20.3 221.68-17.63 223.03-14.95 223.03-11.45L223.03-11.45Q223.03-8 221.68-5.33 220.33-2.65 217.96-1.13 215.58 0.4 212.48 0.4ZM212.48-2.6L212.48-2.6Q214.48-2.6 215.98-3.75 217.48-4.9 218.36-6.9 219.23-8.9 219.23-11.5L219.23-11.5Q219.23-14.1 218.36-16.1 217.48-18.1 215.98-19.23 214.48-20.35 212.48-20.35L212.48-20.35Q210.53-20.35 209.01-19.23 207.48-18.1 206.61-16.1 205.73-14.1 205.73-11.5L205.73-11.5Q205.73-8.9 206.61-6.9 207.48-4.9 209.01-3.75 210.53-2.6 212.48-2.6ZM232.08 0L228.58 0 228.58-22.85 232.08-22.85 232.08-18.8Q232.98-20.2 234.18-21.23 235.38-22.25 236.83-22.83 238.28-23.4 239.83-23.4L239.83-23.4Q241.73-23.4 243.23-22.45 244.73-21.5 245.63-19.4 246.53-17.3 246.53-13.85L246.53-13.85 246.53 0 243.03 0 243.03-13.75Q243.03-16.15 242.48-17.57 241.93-19 240.98-19.63 240.03-20.25 238.83-20.25L238.83-20.25Q237.68-20.25 236.5-19.75 235.33-19.25 234.33-18.32 233.33-17.4 232.7-16.1 232.08-14.8 232.08-13.15L232.08-13.15 232.08 0ZM260.53 0.55L260.53 0.55Q256.63 0.55 254.53-1.23 252.43-3 252.43-5.75L252.43-5.75Q252.43-7.6 253.33-9.08 254.23-10.55 255.8-11.58 257.38-12.6 259.48-13.15 261.58-13.7 263.93-13.7L263.93-13.7Q264.78-13.7 265.65-13.68 266.53-13.65 267.5-13.58 268.48-13.5 269.53-13.35L269.53-13.35 269.63-10.6Q268.73-10.75 267.8-10.83 266.88-10.9 265.98-10.95 265.08-11 264.23-11L264.23-11Q262.43-11 260.93-10.7 259.43-10.4 258.33-9.8 257.23-9.2 256.63-8.25 256.03-7.3 256.03-5.95L256.03-5.95Q256.03-4.9 256.4-4.17 256.78-3.45 257.43-3.03 258.08-2.6 258.95-2.4 259.83-2.2 260.88-2.2L260.88-2.2Q262.83-2.2 264.35-2.83 265.88-3.45 266.95-4.65 268.03-5.85 268.58-7.6 269.13-9.35 269.13-11.6L269.13-11.6Q269.13-15 268.33-16.9 267.53-18.8 265.95-19.6 264.38-20.4 261.93-20.4L261.93-20.4Q260.28-20.4 258.68-19.78 257.08-19.15 255.78-17.85L255.78-17.85 254.03-20.15Q255.63-21.75 257.73-22.55 259.83-23.35 262.18-23.35L262.18-23.35Q264.43-23.35 266.28-22.8 268.13-22.25 269.45-20.98 270.78-19.7 271.5-17.55 272.23-15.4 272.23-12.15L272.23-12.15 272.23 0 268.33 0 268.33-3.5Q267.68-2.25 266.75-1.45 265.83-0.65 264.78-0.23 263.73 0.2 262.63 0.38 261.53 0.55 260.53 0.55ZM296.02 0L278.92 0 278.92-2.9 285.67-2.9 285.67-30.35 279.22-30.35 279.22-33.25 289.32-33.25 289.32-2.9 296.02-2.9 296.02 0ZM345.12 0L329.02 0 329.02-2.95 335.17-2.95 335.17-28.2 329.37-28.2 329.37-31.15 344.82-31.15 344.82-28.2 338.67-28.2 338.67-2.9 345.12-2.9 345.12 0ZM363.92 0L360.37 0 360.37-28.05 351.52-28.05 351.52-31.2 373.12-31.2 373.12-28.05 363.92-28.05 363.92 0ZM412.51 0.5L412.51 0.5Q410.61 0.5 408.89 0.1 407.16-0.3 405.64-1.1 404.11-1.9 402.81-3.1L402.81-3.1 404.81-6.5 405.11-6.95 405.41-6.75Q405.51-6.35 405.64-5.93 405.76-5.5 406.31-4.9L406.31-4.9Q407.36-3.85 408.84-3.18 410.31-2.5 412.61-2.5L412.61-2.5Q414.46-2.5 415.74-2.95 417.01-3.4 417.71-4.23 418.41-5.05 418.41-6.15L418.41-6.15Q418.41-6.9 418.11-7.48 417.81-8.05 417.14-8.55 416.46-9.05 415.36-9.55 414.26-10.05 412.66-10.55L412.66-10.55Q410.06-11.3 408.11-12.3 406.16-13.3 405.11-14.63 404.06-15.95 404.06-17.65L404.06-17.65Q404.06-19.4 405.01-20.68 405.96-21.95 407.84-22.68 409.71-23.4 412.46-23.4L412.46-23.4Q414.06-23.4 415.36-23.18 416.66-22.95 417.76-22.5 418.86-22.05 419.79-21.38 420.71-20.7 421.56-19.8L421.56-19.8 419.51-17.3 419.16-16.9 418.91-17.15Q418.86-17.55 418.69-17.93 418.51-18.3 417.96-18.85L417.96-18.85Q416.81-19.75 415.36-20.23 413.91-20.7 412.56-20.7L412.56-20.7Q410.56-20.7 409.11-20 407.66-19.3 407.66-17.85L407.66-17.85Q407.66-17.1 408.19-16.38 408.71-15.65 410.11-14.93 411.51-14.2 414.11-13.45L414.11-13.45Q416.96-12.55 418.69-11.63 420.41-10.7 421.19-9.5 421.96-8.3 421.96-6.65L421.96-6.65Q421.96-4.75 420.94-3.1 419.91-1.45 417.81-0.48 415.71 0.5 412.51 0.5L412.51 0.5ZM438.56 0.5L438.56 0.5Q436.06 0.5 434.01-0.28 431.96-1.05 430.48-2.55 429.01-4.05 428.21-6.28 427.41-8.5 427.41-11.35L427.41-11.35Q427.41-14.25 428.23-16.5 429.06-18.75 430.48-20.28 431.91-21.8 433.83-22.6 435.76-23.4 437.91-23.4L437.91-23.4Q439.86-23.4 441.56-22.75 443.26-22.1 444.51-20.78 445.76-19.45 446.48-17.4 447.21-15.35 447.21-12.55L447.21-12.55Q447.21-12.15 447.18-11.73 447.16-11.3 447.11-10.9L447.11-10.9 430.86-10.9Q430.96-8.7 431.61-7.08 432.26-5.45 433.31-4.42 434.36-3.4 435.73-2.9 437.11-2.4 438.66-2.4L438.66-2.4Q439.86-2.4 440.91-2.68 441.96-2.95 442.88-3.53 443.81-4.1 444.56-4.95L444.56-4.95 446.56-3Q445.61-1.85 444.38-1.05 443.16-0.25 441.71 0.13 440.26 0.5 438.56 0.5ZM431.01-13.7L431.01-13.7 443.56-13.7Q443.56-15.3 443.13-16.57 442.71-17.85 441.93-18.78 441.16-19.7 440.08-20.18 439.01-20.65 437.66-20.65L437.66-20.65Q436.46-20.65 435.38-20.25 434.31-19.85 433.41-18.98 432.51-18.1 431.88-16.8 431.26-15.5 431.01-13.7ZM455.91 0.05L455.91-22.85 459.66-22.85 459.51-16.2 459.06-16.95Q459.36-18.5 460.11-19.7 460.86-20.9 461.91-21.73 462.96-22.55 464.21-22.98 465.46-23.4 466.81-23.4L466.81-23.4Q468.61-23.4 470.13-22.78 471.66-22.15 472.86-20.9L472.86-20.9 471.26-18.1 471.06-17.65 470.71-17.85Q470.61-18.25 470.41-18.6 470.21-18.95 469.56-19.45L469.56-19.45Q468.76-19.95 468.08-20.13 467.41-20.3 466.56-20.3L466.56-20.3Q465.31-20.3 464.06-19.83 462.81-19.35 461.78-18.35 460.76-17.35 460.16-15.8 459.56-14.25 459.56-12.1L459.56-12.1 459.56 0.05 455.91 0.05ZM488.8 0L486 0 476.95-22.85 480.55-22.85 487.95-4.1 487.25-4.1 491.3-13.4Q492.5-16.15 493.23-18.5 493.95-20.85 494.3-22.85L494.3-22.85 497.7-22.85Q497.3-20.75 496.45-18.25 495.6-15.75 494.35-12.85L494.35-12.85 488.8 0ZM519.75 0L504.95 0 504.95-2.9 510.8-2.9 510.8-19.95 505.25-19.95 505.25-22.85 514.4-22.85 514.4-2.9 519.75-2.9 519.75 0ZM512.4-27.65L512.4-27.65Q511.35-27.65 510.6-28.4 509.85-29.15 509.85-30.2L509.85-30.2Q509.85-31.3 510.58-32.05 511.3-32.8 512.4-32.8L512.4-32.8Q513.45-32.8 514.23-32.02 515-31.25 515-30.2L515-30.2Q515-29.15 514.23-28.4 513.45-27.65 512.4-27.65ZM539.2 0.55L539.2 0.55Q536.7 0.55 534.6-0.35 532.5-1.25 530.97-2.85 529.45-4.45 528.6-6.63 527.75-8.8 527.75-11.4L527.75-11.4Q527.75-13.95 528.6-16.13 529.45-18.3 530.97-19.9 532.5-21.5 534.6-22.4 536.7-23.3 539.15-23.3L539.15-23.3Q541.95-23.3 544.17-22.18 546.4-21.05 547.8-19.05L547.8-19.05 545.55-16.85 545.2-16.5 544.95-16.75Q544.95-17.15 544.77-17.5 544.6-17.85 544-18.45L544-18.45Q542.9-19.45 541.65-19.85 540.4-20.25 538.75-20.25L538.75-20.25Q537.3-20.25 536-19.65 534.7-19.05 533.67-17.93 532.65-16.8 532.05-15.2 531.45-13.6 531.45-11.65L531.45-11.65Q531.45-9.7 532.05-8.08 532.65-6.45 533.7-5.25 534.75-4.05 536.22-3.38 537.7-2.7 539.4-2.7L539.4-2.7Q540.55-2.7 541.6-3.03 542.65-3.35 543.6-3.98 544.55-4.6 545.35-5.5L545.35-5.5 547.45-3.05Q545.75-1.25 543.67-0.35 541.6 0.55 539.2 0.55L539.2 0.55ZM563.54 0.5L563.54 0.5Q561.04 0.5 558.99-0.28 556.94-1.05 555.47-2.55 553.99-4.05 553.19-6.28 552.39-8.5 552.39-11.35L552.39-11.35Q552.39-14.25 553.22-16.5 554.04-18.75 555.47-20.28 556.89-21.8 558.82-22.6 560.74-23.4 562.89-23.4L562.89-23.4Q564.84-23.4 566.54-22.75 568.24-22.1 569.49-20.78 570.74-19.45 571.47-17.4 572.19-15.35 572.19-12.55L572.19-12.55Q572.19-12.15 572.17-11.73 572.14-11.3 572.09-10.9L572.09-10.9 555.84-10.9Q555.94-8.7 556.59-7.08 557.24-5.45 558.29-4.42 559.34-3.4 560.72-2.9 562.09-2.4 563.64-2.4L563.64-2.4Q564.84-2.4 565.89-2.68 566.94-2.95 567.87-3.53 568.79-4.1 569.54-4.95L569.54-4.95 571.54-3Q570.59-1.85 569.37-1.05 568.14-0.25 566.69 0.13 565.24 0.5 563.54 0.5ZM555.99-13.7L555.99-13.7 568.54-13.7Q568.54-15.3 568.12-16.57 567.69-17.85 566.92-18.78 566.14-19.7 565.07-20.18 563.99-20.65 562.64-20.65L562.64-20.65Q561.44-20.65 560.37-20.25 559.29-19.85 558.39-18.98 557.49-18.1 556.87-16.8 556.24-15.5 555.99-13.7ZM587.49 0.5L587.49 0.5Q585.59 0.5 583.87 0.1 582.14-0.3 580.62-1.1 579.09-1.9 577.79-3.1L577.79-3.1 579.79-6.5 580.09-6.95 580.39-6.75Q580.49-6.35 580.62-5.93 580.74-5.5 581.29-4.9L581.29-4.9Q582.34-3.85 583.82-3.18 585.29-2.5 587.59-2.5L587.59-2.5Q589.44-2.5 590.72-2.95 591.99-3.4 592.69-4.23 593.39-5.05 593.39-6.15L593.39-6.15Q593.39-6.9 593.09-7.48 592.79-8.05 592.12-8.55 591.44-9.05 590.34-9.55 589.24-10.05 587.64-10.55L587.64-10.55Q585.04-11.3 583.09-12.3 581.14-13.3 580.09-14.63 579.04-15.95 579.04-17.65L579.04-17.65Q579.04-19.4 579.99-20.68 580.94-21.95 582.82-22.68 584.69-23.4 587.44-23.4L587.44-23.4Q589.04-23.4 590.34-23.18 591.64-22.95 592.74-22.5 593.84-22.05 594.77-21.38 595.69-20.7 596.54-19.8L596.54-19.8 594.49-17.3 594.14-16.9 593.89-17.15Q593.84-17.55 593.67-17.93 593.49-18.3 592.94-18.85L592.94-18.85Q591.79-19.75 590.34-20.23 588.89-20.7 587.54-20.7L587.54-20.7Q585.54-20.7 584.09-20 582.64-19.3 582.64-17.85L582.64-17.85Q582.64-17.1 583.17-16.38 583.69-15.65 585.09-14.93 586.49-14.2 589.09-13.45L589.09-13.45Q591.94-12.55 593.67-11.63 595.39-10.7 596.17-9.5 596.94-8.3 596.94-6.65L596.94-6.65Q596.94-4.75 595.92-3.1 594.89-1.45 592.79-0.48 590.69 0.5 587.49 0.5L587.49 0.5Z" opacity="1" transform="matrix(1,0,0,1,0,0)" fill="#1090cb" class="slogan-text-1" data-fill-palette-color="secondary" id="text-1"></path></svg></g></svg></g></svg></g></svg></g><g transform="matrix(1,0,0,1,0,0.30001791013214074)"><svg viewBox="0 0 116.89439747927703 120.00716405285915" height="120.00716405285915" width="116.89439747927703"><g><svg xmlns:dc="http://purl.org/dc/elements/1.1/" xmlns:cc="http://creativecommons.org/ns#" xmlns:rdf="http://www.w3.org/1999/02/22-rdf-syntax-ns#" xmlns:svg="http://www.w3.org/2000/svg" xmlns="http://www.w3.org/2000/svg" version="1.1" viewBox="6.157 4.998614304349524 87.67384563576375 90.00850171815458" xml:space="preserve" x="0" y="0" height="120.00716405285915" width="116.89439747927703" class="icon-icon-0" data-fill-palette-color="accent" id="icon-0"><path d="M56.063 5C55.988 5.002 55.888 5.021 55.813 5.031L48 6.063A2.2 2.2 0 0 0 46.094 8.53L46.78 13.687A29.9 29.9 0 0 0 37.094 19.282L32.937 16.125A2.2 2.2 0 0 0 29.845 16.531L25.062 22.781A2.2 2.2 0 0 0 25.47 25.875L29.594 29.031A29.9 29.9 0 0 0 26.687 39.844L21.532 40.53A2.2 2.2 0 0 0 19.625 43L20.656 50.844A2.2 2.2 0 0 0 23.125 52.75L28.281 52.063C28.523 52.757 28.805 53.426 29.094 54.093 29.36 54.087 29.607 54.096 29.875 54.094 30.02 54.09 30.167 54.064 30.313 54.064 34.213 54.049 37.959 55.305 41.5 56.875 38.435 53.719 36.336 49.572 35.719 44.875 34.194 33.275 42.368 22.65 53.969 21.125S76.194 27.743 77.719 39.344C79.04 49.408 73.086 58.769 63.906 62.063 65.322 62.32 66.722 62.627 68.094 63.063 70.438 63.505 72.274 65.207 73.25 67.313A30.5 30.5 0 0 0 76.375 64.936L80.5 68.126A2.2 2.2 0 0 0 83.594 67.719L88.406 61.469A2.2 2.2 0 0 0 88 58.375L83.844 55.188A29.9 29.9 0 0 0 86.75 44.375L91.906 43.688A2.2 2.2 0 0 0 93.812 41.218L92.783 33.407A2.2 2.2 0 0 0 90.311 31.5L85.157 32.188A30 30 0 0 0 79.562 22.468L82.72 18.345A2.2 2.2 0 0 0 82.313 15.25L76.063 10.438A2.2 2.2 0 0 0 72.969 10.844L69.78 14.969A29.9 29.9 0 0 0 58.97 12.094L58.312 6.906A2.19 2.19 0 0 0 56.063 5M29.937 56.75C21.877 56.666 13.918 59.955 6.157 62.5V81.438C8.07 81.988 14.386 82.26 16.343 82.656 22.024 83.805 26.769 87.67 32.062 90 36.62 92.005 41.153 94.908 46.22 95 53.95 95.14 61.522 93.182 69.125 91.969 75.268 90.989 80.8 85.56 84.938 81.125 92.037 73.515 83.183 67.41 76.656 72.875 73.502 75.516 69.84 77.734 65.562 78.188 58.766 78.908 51.276 79.246 45.376 75.406 48.059 74.081 51.808 75.138 54.906 75.156 59.246 75.182 63.678 76.421 67.938 75.562 72.303 74.683 72.64 67.326 68.062 65.813 61.475 63.637 54.442 64.03 47.845 62.283 42.884 60.965 38.59 57.73 33.406 57A27 27 0 0 0 29.938 56.75" fill="#1090cb" fill-opacity="1" fill-rule="evenodd" stroke="none" marker="none" visibility="visible" display="inline" overflow="visible" text-indent="0" text-transform="none" direction="ltr" block-progression="tb" baseline-shift="baseline" color="#1090cb" enable-background="accumulate" data-fill-palette-color="accent"></path></svg></g></svg></g></svg></g><defs></defs></svg><rect width="395.52" height="85.0395281648742" fill="none" stroke="none" visibility="hidden"></rect></g></svg></g></svg>